<svg width="214" height="30" viewBox="0 0 214 30" fill="none" xmlns="http://www.w3.org/2000/svg">
<path d="M0.52 0.999998H10.2V29H0.52V0.999998ZM14.9675 7.68H21.4475L22.3275 9.92C23.1808 9.01333 24.2075 8.32 25.4075 7.84C26.6075 7.36 27.9275 7.12 29.3675 7.12C32.1142 7.12 34.2875 7.94667 35.8875 9.6C37.4875 11.2267 38.2875 13.4667 38.2875 16.32V29H29.1675V17.44C29.1675 16.4533 28.9542 15.7067 28.5275 15.2C28.1008 14.6933 27.4875 14.44 26.6875 14.44C25.8608 14.44 25.2208 14.7067 24.7675 15.24C24.3142 15.7733 24.0875 16.5467 24.0875 17.56V29H14.9675V7.68ZM39.4481 7.68H49.2881L51.2081 14.52L52.4881 19.32H52.6081L53.8881 14.52L55.8081 7.68H65.6081L57.3281 29H47.7281L39.4481 7.68ZM77.8425 29.6C75.4425 29.6 73.3092 29.1333 71.4425 28.2C69.5758 27.24 68.1225 25.9067 67.0825 24.2C66.0425 22.4933 65.5225 20.5467 65.5225 18.36C65.5225 16.1733 66.0425 14.2267 67.0825 12.52C68.1492 10.8133 69.6158 9.49333 71.4825 8.56C73.3492 7.6 75.4958 7.12 77.9225 7.12C80.5625 7.12 82.8292 7.66666 84.7225 8.76C86.6425 9.82667 88.0825 11.36 89.0425 13.36C90.0025 15.36 90.4158 17.68 90.2825 20.32H74.3625C74.6025 21.28 75.0558 22 75.7225 22.48C76.3892 22.96 77.1892 23.2 78.1225 23.2C78.7892 23.2 79.4025 23.0933 79.9625 22.88C80.5492 22.64 81.0158 22.32 81.3625 21.92H89.9225C89.0425 24.3467 87.5358 26.24 85.4025 27.6C83.2958 28.9333 80.7758 29.6 77.8425 29.6ZM81.7225 16.12C81.4558 15.2667 81.0158 14.6133 80.4025 14.16C79.7892 13.68 79.0158 13.44 78.0825 13.44C77.1758 13.44 76.4025 13.6667 75.7625 14.12C75.1225 14.5733 74.6692 15.24 74.4025 16.12H81.7225ZM102.682 29.6C99.4555 29.6 96.8955 28.92 95.0022 27.56C93.1355 26.2 92.2022 24.3467 92.2022 22H101.002C101.002 22.5333 101.162 22.9733 101.482 23.32C101.829 23.6667 102.269 23.84 102.802 23.84C103.256 23.84 103.616 23.7333 103.882 23.52C104.149 23.28 104.282 22.9733 104.282 22.6C104.282 22.12 103.989 21.7333 103.402 21.44C102.816 21.12 101.842 20.8667 100.482 20.68C97.7089 20.28 95.6555 19.5333 94.3222 18.44C93.0155 17.3467 92.3622 15.8533 92.3622 13.96C92.3622 11.7467 93.2289 10.0533 94.9622 8.88C96.7222 7.70667 99.2555 7.12 102.562 7.12C105.736 7.12 108.189 7.74667 109.922 9C111.656 10.2533 112.589 12.0933 112.722 14.52H104.242C104.216 13.96 104.042 13.5333 103.722 13.24C103.402 12.9467 102.962 12.8 102.402 12.8C101.949 12.8 101.589 12.9067 101.322 13.12C101.082 13.3333 100.962 13.6267 100.962 14C100.962 14.48 101.242 14.8533 101.802 15.12C102.362 15.3867 103.416 15.64 104.962 15.88C107.682 16.28 109.709 17.04 111.042 18.16C112.402 19.28 113.082 20.7733 113.082 22.64C113.082 24.8533 112.176 26.5733 110.362 27.8C108.549 29 105.989 29.6 102.682 29.6ZM127.504 29C124.357 29 121.984 28.2933 120.384 26.88C118.811 25.44 118.024 23.3067 118.024 20.48V14.72H114.224V7.68H116.104C116.957 7.68 117.611 7.6 118.064 7.44C118.517 7.28 118.851 7 119.064 6.6C119.304 6.17333 119.491 5.56 119.624 4.76L120.064 2.08H127.144V7.68H132.024V14.68H127.144V18.64C127.144 19.6533 127.384 20.4 127.864 20.88C128.371 21.3333 129.157 21.56 130.224 21.56H132.264V29H127.504ZM144.785 29V2.24H147.745V29H144.785ZM135.105 4.16V1.48H157.425V4.16H135.105ZM164.833 29.4C162.939 29.4 161.246 28.9733 159.753 28.12C158.259 27.2667 157.073 26.0933 156.193 24.6C155.339 23.1067 154.913 21.4267 154.913 19.56C154.913 17.72 155.339 16.0667 156.193 14.6C157.046 13.1067 158.206 11.9333 159.673 11.08C161.139 10.2267 162.779 9.8 164.593 9.8C166.299 9.8 167.806 10.1867 169.113 10.96C170.446 11.7333 171.486 12.8133 172.233 14.2C173.006 15.56 173.393 17.1333 173.393 18.92C173.393 19.1333 173.379 19.3867 173.353 19.68C173.326 19.9467 173.273 20.2667 173.193 20.64H156.913V18.24H171.673L170.673 19.12C170.699 17.7333 170.459 16.5467 169.953 15.56C169.473 14.5467 168.766 13.7733 167.833 13.24C166.926 12.68 165.819 12.4 164.513 12.4C163.153 12.4 161.966 12.6933 160.953 13.28C159.939 13.8667 159.139 14.6933 158.553 15.76C157.993 16.8 157.713 18.04 157.713 19.48C157.713 20.92 158.006 22.1867 158.592 23.28C159.206 24.3733 160.046 25.2267 161.113 25.84C162.206 26.4533 163.459 26.76 164.873 26.76C166.019 26.76 167.073 26.56 168.033 26.16C168.993 25.7333 169.806 25.1067 170.473 24.28L172.273 26.12C171.393 27.16 170.299 27.9733 168.993 28.56C167.713 29.12 166.326 29.4 164.833 29.4ZM186.236 29.4C184.396 29.4 182.729 28.9733 181.236 28.12C179.769 27.24 178.596 26.0533 177.716 24.56C176.863 23.0667 176.436 21.4 176.436 19.56C176.436 17.72 176.863 16.0667 177.716 14.6C178.596 13.1067 179.769 11.9333 181.236 11.08C182.729 10.2267 184.396 9.8 186.236 9.8C187.649 9.8 188.969 10.0667 190.196 10.6C191.423 11.1333 192.463 11.88 193.316 12.84L191.476 14.72C190.836 14 190.063 13.4533 189.156 13.08C188.249 12.68 187.276 12.48 186.236 12.48C184.903 12.48 183.716 12.7867 182.676 13.4C181.636 14.0133 180.823 14.8533 180.236 15.92C179.649 16.96 179.356 18.1733 179.356 19.56C179.356 20.92 179.649 22.1467 180.236 23.24C180.823 24.3067 181.636 25.1467 182.676 25.76C183.716 26.3733 184.903 26.68 186.236 26.68C187.303 26.68 188.289 26.4933 189.196 26.12C190.103 25.72 190.876 25.16 191.516 24.44L193.396 26.32C192.516 27.3067 191.449 28.0667 190.196 28.6C188.969 29.1333 187.649 29.4 186.236 29.4ZM211.004 29V17.96C211.004 16.3067 210.511 14.9733 209.524 13.96C208.564 12.92 207.284 12.4 205.684 12.4C204.591 12.4 203.631 12.64 202.804 13.12C201.978 13.6 201.324 14.2533 200.844 15.08C200.364 15.9067 200.124 16.8533 200.124 17.92L198.844 17.2C198.844 15.7867 199.178 14.52 199.844 13.4C200.511 12.28 201.404 11.4 202.524 10.76C203.671 10.12 204.978 9.8 206.444 9.8C207.884 9.8 209.164 10.1333 210.284 10.8C211.404 11.44 212.271 12.3333 212.884 13.48C213.524 14.6267 213.844 15.96 213.844 17.48V29H211.004ZM197.324 29V0.68H200.124V29H197.324Z" fill="black"/>
</svg>
