<svg width="781" height="293" viewBox="0 0 781 293" fill="none" xmlns="http://www.w3.org/2000/svg">
<path d="M148.6 162.711C136.955 196.445 62.4813 162.711 62.4813 162.711V254H769.042V192.594V17.8927C769.042 17.8927 743.444 8.69791 724.026 38.581C704.608 68.464 644.617 68.464 633.993 68.464C623.37 68.464 629.063 98.8907 612.464 100.646C595.864 102.401 586.983 77.5656 571.362 54.6718C555.741 31.7781 533.522 54.6718 510.688 38.581C487.853 22.4901 464.373 47.7758 457.842 79.9575C451.312 112.139 414.783 79.9575 393.254 79.9575C371.724 79.9575 392.121 116.131 371.724 112.139C351.327 108.148 298.018 56.2751 289.52 68.464C270.696 71.8422 258.008 133.604 240.589 135.126C223.171 136.648 196.123 104.32 181.872 112.139C181.872 112.139 160.244 128.976 148.6 162.711Z" fill="url(#paint0_linear_103_133)" fill-opacity="0.4" stroke="url(#paint1_linear_103_133)" stroke-width="0.919906"/>
<line x1="62.4813" y1="16.0984" x2="769.042" y2="16.0984" stroke="#A6A6A6" stroke-width="0.919906" stroke-dasharray="7.36 7.36"/>
<path d="M4.17707 17V5.40919H6.04815V17H4.17707ZM1.8589 7.11469V5.40919H5.88257V7.11469H1.8589ZM7.77798 15.874L12.05 11.3371C12.4033 10.9617 12.6903 10.6251 12.9111 10.327C13.1318 10.029 13.2919 9.74746 13.3912 9.48253C13.4906 9.2176 13.5403 8.94714 13.5403 8.67117C13.5403 8.15235 13.3692 7.74943 13.027 7.46242C12.6958 7.16437 12.2708 7.01534 11.752 7.01534C11.2 7.01534 10.7143 7.15333 10.2948 7.4293C9.87536 7.70527 9.50004 8.13579 9.16888 8.72085L7.84421 7.628C8.29681 6.84424 8.85427 6.25366 9.5166 5.85626C10.1789 5.44782 10.9461 5.2436 11.8182 5.2436C12.5357 5.2436 13.1649 5.38711 13.7059 5.67412C14.2468 5.96113 14.6662 6.36405 14.9643 6.88288C15.2623 7.39066 15.4114 7.98124 15.4114 8.65461C15.4114 9.14032 15.3506 9.57636 15.2292 9.96272C15.1188 10.338 14.9256 10.7189 14.6497 11.1052C14.3737 11.4806 13.9929 11.9221 13.5072 12.4299L10.2286 15.8244L7.77798 15.874ZM7.77798 17V15.874L9.41725 15.2945H15.6432V17H7.77798ZM20.346 17.1656C19.5733 17.1656 18.8723 17.0276 18.2431 16.7516C17.6249 16.4646 17.1006 16.0507 16.67 15.5098L17.9616 14.2182C18.1934 14.5714 18.5191 14.8529 18.9385 15.0627C19.358 15.2724 19.8161 15.3773 20.3129 15.3773C20.7875 15.3773 21.196 15.289 21.5382 15.1124C21.8804 14.9357 22.1453 14.6874 22.333 14.3672C22.5317 14.0471 22.631 13.6773 22.631 13.2578C22.631 12.8163 22.5317 12.4409 22.333 12.1319C22.1453 11.8228 21.8694 11.5854 21.5051 11.4199C21.1518 11.2432 20.7213 11.1549 20.2135 11.1549C20.0148 11.1549 19.8106 11.1715 19.6009 11.2046C19.3911 11.2267 19.2035 11.2653 19.0379 11.3205L19.8824 10.2277C20.1142 10.1393 20.357 10.0676 20.6109 10.0124C20.8759 9.94616 21.1298 9.91305 21.3726 9.91305C21.9687 9.91305 22.5041 10.0566 22.9788 10.3436C23.4645 10.6306 23.8453 11.0335 24.1213 11.5523C24.4083 12.0601 24.5518 12.6617 24.5518 13.3572C24.5518 14.1078 24.3752 14.7701 24.0219 15.3442C23.6687 15.9182 23.1775 16.3653 22.5482 16.6854C21.919 17.0055 21.1849 17.1656 20.346 17.1656ZM19.0379 11.3205V10.1945L22.1343 6.58483L24.4193 6.53515L21.1905 10.2442L19.0379 11.3205ZM17.2496 7.11469V5.40919H24.4193V6.53515L22.7801 7.11469H17.2496ZM30.6625 17.1656C29.7904 17.1656 28.9901 16.9227 28.2615 16.437C27.544 15.9403 26.97 15.2448 26.5394 14.3507C26.1089 13.4565 25.8937 12.4023 25.8937 11.188C25.8937 9.97376 26.1034 8.92507 26.5229 8.04196C26.9534 7.14781 27.5274 6.45788 28.2449 5.97217C28.9625 5.48646 29.7573 5.2436 30.6293 5.2436C31.5125 5.2436 32.3128 5.48646 33.0303 5.97217C33.7478 6.45788 34.3163 7.14781 34.7358 8.04196C35.1663 8.92507 35.3816 9.97928 35.3816 11.2046C35.3816 12.4189 35.1663 13.4731 34.7358 14.3672C34.3163 15.2614 33.7478 15.9513 33.0303 16.437C32.3238 16.9227 31.5345 17.1656 30.6625 17.1656ZM30.6293 15.3773C31.2034 15.3773 31.7001 15.2227 32.1196 14.9137C32.5391 14.6046 32.8647 14.1409 33.0965 13.5228C33.3394 12.9046 33.4608 12.1263 33.4608 11.188C33.4608 10.2608 33.3394 9.48805 33.0965 8.86987C32.8647 8.2517 32.5335 7.79358 32.103 7.49553C31.6836 7.18644 31.1923 7.0319 30.6293 7.0319C30.0664 7.0319 29.5696 7.18644 29.1391 7.49553C28.7196 7.79358 28.394 8.2517 28.1622 8.86987C27.9303 9.47701 27.8144 10.2497 27.8144 11.188C27.8144 12.1263 27.9303 12.9046 28.1622 13.5228C28.394 14.1409 28.7196 14.6046 29.1391 14.9137C29.5696 15.2227 30.0664 15.3773 30.6293 15.3773ZM41.5127 17.1656C40.6406 17.1656 39.8403 16.9227 39.1117 16.437C38.3942 15.9403 37.8202 15.2448 37.3897 14.3507C36.9591 13.4565 36.7439 12.4023 36.7439 11.188C36.7439 9.97376 36.9536 8.92507 37.3731 8.04196C37.8036 7.14781 38.3776 6.45788 39.0952 5.97217C39.8127 5.48646 40.6075 5.2436 41.4796 5.2436C42.3627 5.2436 43.163 5.48646 43.8805 5.97217C44.598 6.45788 45.1665 7.14781 45.586 8.04196C46.0165 8.92507 46.2318 9.97928 46.2318 11.2046C46.2318 12.4189 46.0165 13.4731 45.586 14.3672C45.1665 15.2614 44.598 15.9513 43.8805 16.437C43.174 16.9227 42.3847 17.1656 41.5127 17.1656ZM41.4796 15.3773C42.0536 15.3773 42.5503 15.2227 42.9698 14.9137C43.3893 14.6046 43.7149 14.1409 43.9467 13.5228C44.1896 12.9046 44.311 12.1263 44.311 11.188C44.311 10.2608 44.1896 9.48805 43.9467 8.86987C43.7149 8.2517 43.3838 7.79358 42.9532 7.49553C42.5338 7.18644 42.0425 7.0319 41.4796 7.0319C40.9166 7.0319 40.4198 7.18644 39.9893 7.49553C39.5698 7.79358 39.2442 8.2517 39.0124 8.86987C38.7806 9.47701 38.6646 10.2497 38.6646 11.188C38.6646 12.1263 38.7806 12.9046 39.0124 13.5228C39.2442 14.1409 39.5698 14.6046 39.9893 14.9137C40.4198 15.2227 40.9166 15.3773 41.4796 15.3773Z" fill="#989898"/>
<line x1="60.7148" y1="139.366" x2="767.276" y2="139.366" stroke="#A6A6A6" stroke-width="0.919906" stroke-dasharray="7.36 7.36"/>
<path d="M16.883 135.833C16.1103 135.833 15.4148 135.657 14.7966 135.304C14.1785 134.939 13.6872 134.454 13.3229 133.846C12.9697 133.239 12.7931 132.566 12.7931 131.826C12.7931 130.767 13.1629 129.696 13.9025 128.614L17.0651 124.077H19.2674L15.8895 128.829L15.194 129.243C15.3044 128.989 15.4424 128.774 15.608 128.597C15.7846 128.41 16.0109 128.266 16.2869 128.167C16.5739 128.068 16.9271 128.018 17.3466 128.018C18.02 128.018 18.6271 128.178 19.168 128.498C19.72 128.807 20.1615 129.243 20.4927 129.806C20.8239 130.358 20.9894 131.009 20.9894 131.76C20.9894 132.511 20.8073 133.195 20.443 133.813C20.0787 134.431 19.582 134.923 18.9528 135.287C18.3346 135.651 17.6447 135.833 16.883 135.833ZM16.883 134.045C17.3025 134.045 17.6778 133.946 18.0089 133.747C18.3401 133.548 18.5995 133.278 18.7872 132.936C18.9859 132.582 19.0852 132.191 19.0852 131.76C19.0852 131.33 18.9859 130.943 18.7872 130.601C18.5995 130.259 18.3401 129.994 18.0089 129.806C17.6778 129.608 17.3025 129.508 16.883 129.508C16.4635 129.508 16.0882 129.608 15.757 129.806C15.4258 130.005 15.1664 130.275 14.9788 130.618C14.7911 130.949 14.6973 131.33 14.6973 131.76C14.6973 132.191 14.7911 132.582 14.9788 132.936C15.1664 133.278 15.4258 133.548 15.757 133.747C16.0882 133.946 16.4635 134.045 16.883 134.045ZM23.9047 135.668V124.077H25.7758V135.668H23.9047ZM21.5866 125.783V124.077H25.6102V125.783H21.5866ZM31.1319 135.833C30.3261 135.833 29.6085 135.695 28.9793 135.419C28.3501 135.132 27.8203 134.719 27.3897 134.178L28.6813 132.886C28.9131 133.239 29.2387 133.521 29.6582 133.731C30.0887 133.94 30.5689 134.045 31.0988 134.045C31.5845 134.045 32.0095 133.957 32.3738 133.78C32.7381 133.604 33.0251 133.35 33.2348 133.019C33.4446 132.687 33.5494 132.295 33.5494 131.843C33.5494 131.368 33.4446 130.976 33.2348 130.667C33.0361 130.347 32.7657 130.11 32.4235 129.955C32.0923 129.79 31.7335 129.707 31.3472 129.707C30.9056 129.707 30.5082 129.757 30.155 129.856C29.8128 129.955 29.4761 130.132 29.1449 130.386L29.1946 129.194C29.3712 128.962 29.5754 128.774 29.8072 128.631C30.0391 128.476 30.3095 128.36 30.6186 128.283C30.9277 128.206 31.292 128.167 31.7115 128.167C32.5283 128.167 33.2127 128.338 33.7647 128.68C34.3277 129.022 34.7527 129.481 35.0397 130.055C35.3267 130.618 35.4702 131.247 35.4702 131.942C35.4702 132.693 35.2825 133.361 34.9072 133.946C34.5429 134.531 34.0351 134.994 33.3838 135.337C32.7325 135.668 31.9819 135.833 31.1319 135.833ZM29.1449 130.386L28.1017 129.343L28.6151 124.077H30.3537L29.7576 129.558L29.1449 130.386ZM28.9462 125.783L28.6151 124.077H34.8244V125.783H28.9462ZM41.5127 135.833C40.6406 135.833 39.8403 135.591 39.1117 135.105C38.3942 134.608 37.8202 133.913 37.3897 133.019C36.9591 132.124 36.7439 131.07 36.7439 129.856C36.7439 128.642 36.9536 127.593 37.3731 126.71C37.8036 125.816 38.3776 125.126 39.0952 124.64C39.8127 124.154 40.6075 123.911 41.4796 123.911C42.3627 123.911 43.163 124.154 43.8805 124.64C44.598 125.126 45.1665 125.816 45.586 126.71C46.0165 127.593 46.2318 128.647 46.2318 129.872C46.2318 131.087 46.0165 132.141 45.586 133.035C45.1665 133.929 44.598 134.619 43.8805 135.105C43.174 135.591 42.3847 135.833 41.5127 135.833ZM41.4796 134.045C42.0536 134.045 42.5503 133.891 42.9698 133.582C43.3893 133.272 43.7149 132.809 43.9467 132.191C44.1896 131.572 44.311 130.794 44.311 129.856C44.311 128.929 44.1896 128.156 43.9467 127.538C43.7149 126.92 43.3838 126.461 42.9532 126.163C42.5338 125.854 42.0425 125.7 41.4796 125.7C40.9166 125.7 40.4198 125.854 39.9893 126.163C39.5698 126.461 39.2442 126.92 39.0124 127.538C38.7806 128.145 38.6646 128.918 38.6646 129.856C38.6646 130.794 38.7806 131.572 39.0124 132.191C39.2442 132.809 39.5698 133.272 39.9893 133.582C40.4198 133.891 40.9166 134.045 41.4796 134.045Z" fill="#989898"/>
<line x1="60.7138" y1="255.274" x2="767.275" y2="255.274" stroke="#E3E3E3" stroke-width="2.75972"/>
<path d="M40.5928 257.261C39.7207 257.261 38.9204 257.018 38.1918 256.532C37.4743 256.036 36.9003 255.34 36.4697 254.446C36.0392 253.552 35.824 252.498 35.824 251.283C35.824 250.069 36.0337 249.02 36.4532 248.137C36.8837 247.243 37.4577 246.553 38.1752 246.068C38.8928 245.582 39.6876 245.339 40.5596 245.339C41.4427 245.339 42.2431 245.582 42.9606 246.068C43.6781 246.553 44.2466 247.243 44.6661 248.137C45.0966 249.02 45.3119 250.075 45.3119 251.3C45.3119 252.514 45.0966 253.568 44.6661 254.463C44.2466 255.357 43.6781 256.047 42.9606 256.532C42.2541 257.018 41.4648 257.261 40.5928 257.261ZM40.5596 255.473C41.1337 255.473 41.6304 255.318 42.0499 255.009C42.4694 254.7 42.795 254.236 43.0268 253.618C43.2697 253 43.3911 252.222 43.3911 251.283C43.3911 250.356 43.2697 249.583 43.0268 248.965C42.795 248.347 42.4638 247.889 42.0333 247.591C41.6139 247.282 41.1226 247.127 40.5596 247.127C39.9967 247.127 39.4999 247.282 39.0694 247.591C38.6499 247.889 38.3243 248.347 38.0925 248.965C37.8606 249.572 37.7447 250.345 37.7447 251.283C37.7447 252.222 37.8606 253 38.0925 253.618C38.3243 254.236 38.6499 254.7 39.0694 255.009C39.4999 255.318 39.9967 255.473 40.5596 255.473Z" fill="#989898"/>
<path d="M675.974 280.654V269.063H677.299L682.117 276.994H681.256L686.075 269.063H687.4V280.654H685.495V272.408L685.926 272.524L682.349 278.402H681.025L677.448 272.524L677.878 272.408V280.654H675.974ZM692.993 280.819C692.275 280.819 691.624 280.637 691.039 280.273C690.465 279.909 690.007 279.417 689.665 278.799C689.333 278.17 689.168 277.469 689.168 276.696C689.168 275.913 689.333 275.212 689.665 274.593C690.007 273.964 690.465 273.467 691.039 273.103C691.624 272.728 692.275 272.54 692.993 272.54C693.6 272.54 694.135 272.673 694.599 272.938C695.074 273.191 695.449 273.545 695.725 273.997C696.001 274.45 696.139 274.963 696.139 275.537V277.822C696.139 278.396 696.001 278.91 695.725 279.362C695.46 279.815 695.09 280.174 694.616 280.438C694.141 280.692 693.6 280.819 692.993 280.819ZM693.291 279.097C693.964 279.097 694.505 278.871 694.914 278.418C695.333 277.966 695.543 277.386 695.543 276.68C695.543 276.205 695.449 275.786 695.261 275.421C695.074 275.057 694.809 274.776 694.467 274.577C694.135 274.367 693.743 274.262 693.291 274.262C692.849 274.262 692.457 274.367 692.115 274.577C691.784 274.776 691.519 275.057 691.32 275.421C691.133 275.786 691.039 276.205 691.039 276.68C691.039 277.154 691.133 277.574 691.32 277.938C691.519 278.302 691.784 278.589 692.115 278.799C692.457 278.998 692.849 279.097 693.291 279.097ZM695.427 280.654V278.518L695.742 276.58L695.427 274.66V272.706H697.248V280.654H695.427ZM699.27 280.654V272.706H701.091V280.654H699.27ZM701.091 276.233L700.462 275.918C700.462 274.914 700.683 274.102 701.124 273.484C701.577 272.855 702.256 272.54 703.161 272.54C703.558 272.54 703.917 272.612 704.237 272.755C704.557 272.899 704.855 273.131 705.131 273.451L703.939 274.676C703.796 274.522 703.636 274.411 703.459 274.345C703.282 274.279 703.078 274.246 702.846 274.246C702.339 274.246 701.919 274.406 701.588 274.726C701.257 275.046 701.091 275.548 701.091 276.233ZM711.357 280.654V269.063H713.228V280.654H711.357ZM709.039 270.768V269.063H713.063V270.768H709.039ZM718.568 280.819C717.795 280.819 717.094 280.681 716.465 280.405C715.847 280.118 715.323 279.704 714.892 279.163L716.184 277.872C716.415 278.225 716.741 278.507 717.16 278.716C717.58 278.926 718.038 279.031 718.535 279.031C719.009 279.031 719.418 278.943 719.76 278.766C720.102 278.589 720.367 278.341 720.555 278.021C720.754 277.701 720.853 277.331 720.853 276.912C720.853 276.47 720.754 276.095 720.555 275.786C720.367 275.476 720.091 275.239 719.727 275.074C719.374 274.897 718.943 274.809 718.435 274.809C718.237 274.809 718.033 274.825 717.823 274.858C717.613 274.88 717.425 274.919 717.26 274.974L718.104 273.881C718.336 273.793 718.579 273.721 718.833 273.666C719.098 273.6 719.352 273.567 719.595 273.567C720.191 273.567 720.726 273.71 721.201 273.997C721.686 274.284 722.067 274.687 722.343 275.206C722.63 275.714 722.774 276.315 722.774 277.011C722.774 277.762 722.597 278.424 722.244 278.998C721.891 279.572 721.399 280.019 720.77 280.339C720.141 280.659 719.407 280.819 718.568 280.819ZM717.26 274.974V273.848L720.356 270.239L722.641 270.189L719.412 273.898L717.26 274.974ZM715.472 270.768V269.063H722.641V270.189L721.002 270.768H715.472ZM724.01 282.591L725.136 280.488L725.749 280.323C725.683 280.455 725.605 280.565 725.517 280.654C725.429 280.742 725.324 280.786 725.202 280.786C724.948 280.786 724.711 280.681 724.49 280.472C724.281 280.251 724.176 279.975 724.176 279.644C724.176 279.29 724.292 278.992 724.523 278.75C724.766 278.496 725.064 278.369 725.418 278.369C725.749 278.369 726.036 278.496 726.279 278.75C726.533 278.992 726.66 279.29 726.66 279.644C726.66 279.787 726.626 279.958 726.56 280.157C726.505 280.345 726.4 280.587 726.246 280.886L725.02 283.137L724.01 282.591ZM731.355 279.528L735.627 274.991C735.98 274.615 736.267 274.279 736.488 273.981C736.709 273.683 736.869 273.401 736.968 273.136C737.067 272.871 737.117 272.601 737.117 272.325C737.117 271.806 736.946 271.403 736.604 271.116C736.273 270.818 735.848 270.669 735.329 270.669C734.777 270.669 734.291 270.807 733.872 271.083C733.452 271.359 733.077 271.79 732.746 272.375L731.421 271.282C731.874 270.498 732.431 269.907 733.093 269.51C733.756 269.102 734.523 268.897 735.395 268.897C736.113 268.897 736.742 269.041 737.283 269.328C737.824 269.615 738.243 270.018 738.541 270.537C738.839 271.044 738.988 271.635 738.988 272.308C738.988 272.794 738.927 273.23 738.806 273.616C738.696 273.992 738.502 274.373 738.227 274.759C737.951 275.134 737.57 275.576 737.084 276.084L733.805 279.478L731.355 279.528ZM731.355 280.654V279.528L732.994 278.948H739.22V280.654H731.355ZM745.297 280.819C744.425 280.819 743.625 280.576 742.896 280.091C742.179 279.594 741.605 278.899 741.174 278.004C740.744 277.11 740.528 276.056 740.528 274.842C740.528 273.627 740.738 272.579 741.158 271.696C741.588 270.802 742.162 270.112 742.88 269.626C743.597 269.14 744.392 268.897 745.264 268.897C746.147 268.897 746.947 269.14 747.665 269.626C748.383 270.112 748.951 270.802 749.371 271.696C749.801 272.579 750.016 273.633 750.016 274.858C750.016 276.073 749.801 277.127 749.371 278.021C748.951 278.915 748.383 279.605 747.665 280.091C746.959 280.576 746.169 280.819 745.297 280.819ZM745.264 279.031C745.838 279.031 746.335 278.876 746.754 278.567C747.174 278.258 747.499 277.795 747.731 277.176C747.974 276.558 748.096 275.78 748.096 274.842C748.096 273.914 747.974 273.142 747.731 272.524C747.499 271.905 747.168 271.447 746.738 271.149C746.318 270.84 745.827 270.686 745.264 270.686C744.701 270.686 744.204 270.84 743.774 271.149C743.354 271.447 743.029 271.905 742.797 272.524C742.565 273.131 742.449 273.903 742.449 274.842C742.449 275.78 742.565 276.558 742.797 277.176C743.029 277.795 743.354 278.258 743.774 278.567C744.204 278.876 744.701 279.031 745.264 279.031ZM751.163 279.528L755.435 274.991C755.789 274.615 756.076 274.279 756.296 273.981C756.517 273.683 756.677 273.401 756.777 273.136C756.876 272.871 756.926 272.601 756.926 272.325C756.926 271.806 756.755 271.403 756.412 271.116C756.081 270.818 755.656 270.669 755.137 270.669C754.585 270.669 754.1 270.807 753.68 271.083C753.261 271.359 752.885 271.79 752.554 272.375L751.23 271.282C751.682 270.498 752.24 269.907 752.902 269.51C753.564 269.102 754.331 268.897 755.204 268.897C755.921 268.897 756.55 269.041 757.091 269.328C757.632 269.615 758.052 270.018 758.35 270.537C758.648 271.044 758.797 271.635 758.797 272.308C758.797 272.794 758.736 273.23 758.615 273.616C758.504 273.992 758.311 274.373 758.035 274.759C757.759 275.134 757.378 275.576 756.893 276.084L753.614 279.478L751.163 279.528ZM751.163 280.654V279.528L752.803 278.948H759.029V280.654H751.163ZM760.122 279.528L764.394 274.991C764.747 274.615 765.034 274.279 765.255 273.981C765.475 273.683 765.636 273.401 765.735 273.136C765.834 272.871 765.884 272.601 765.884 272.325C765.884 271.806 765.713 271.403 765.371 271.116C765.039 270.818 764.614 270.669 764.096 270.669C763.544 270.669 763.058 270.807 762.638 271.083C762.219 271.359 761.844 271.79 761.513 272.375L760.188 271.282C760.64 270.498 761.198 269.907 761.86 269.51C762.523 269.102 763.29 268.897 764.162 268.897C764.879 268.897 765.509 269.041 766.05 269.328C766.59 269.615 767.01 270.018 767.308 270.537C767.606 271.044 767.755 271.635 767.755 272.308C767.755 272.794 767.694 273.23 767.573 273.616C767.462 273.992 767.269 274.373 766.993 274.759C766.717 275.134 766.337 275.576 765.851 276.084L762.572 279.478L760.122 279.528ZM760.122 280.654V279.528L761.761 278.948H767.987V280.654H760.122Z" fill="#8B8B8B"/>
<path d="M354.675 280.654V269.063H355.999L360.818 276.994H359.957L364.775 269.063H366.1V280.654H364.196V272.408L364.626 272.524L361.05 278.402H359.725L356.148 272.524L356.579 272.408V280.654H354.675ZM371.693 280.819C370.976 280.819 370.324 280.637 369.739 280.273C369.165 279.909 368.707 279.417 368.365 278.799C368.034 278.17 367.868 277.469 367.868 276.696C367.868 275.913 368.034 275.212 368.365 274.593C368.707 273.964 369.165 273.467 369.739 273.103C370.324 272.728 370.976 272.54 371.693 272.54C372.3 272.54 372.836 272.673 373.299 272.938C373.774 273.191 374.149 273.545 374.425 273.997C374.701 274.45 374.839 274.963 374.839 275.537V277.822C374.839 278.396 374.701 278.91 374.425 279.362C374.161 279.815 373.791 280.174 373.316 280.438C372.841 280.692 372.3 280.819 371.693 280.819ZM371.991 279.097C372.665 279.097 373.206 278.871 373.614 278.418C374.034 277.966 374.243 277.386 374.243 276.68C374.243 276.205 374.149 275.786 373.962 275.421C373.774 275.057 373.509 274.776 373.167 274.577C372.836 274.367 372.444 274.262 371.991 274.262C371.55 274.262 371.158 274.367 370.816 274.577C370.485 274.776 370.22 275.057 370.021 275.421C369.833 275.786 369.739 276.205 369.739 276.68C369.739 277.154 369.833 277.574 370.021 277.938C370.22 278.302 370.485 278.589 370.816 278.799C371.158 278.998 371.55 279.097 371.991 279.097ZM374.127 280.654V278.518L374.442 276.58L374.127 274.66V272.706H375.949V280.654H374.127ZM377.97 280.654V272.706H379.792V280.654H377.97ZM379.792 276.233L379.162 275.918C379.162 274.914 379.383 274.102 379.825 273.484C380.277 272.855 380.956 272.54 381.861 272.54C382.259 272.54 382.618 272.612 382.938 272.755C383.258 272.899 383.556 273.131 383.832 273.451L382.64 274.676C382.496 274.522 382.336 274.411 382.159 274.345C381.983 274.279 381.779 274.246 381.547 274.246C381.039 274.246 380.62 274.406 380.288 274.726C379.957 275.046 379.792 275.548 379.792 276.233ZM392.757 280.819C391.885 280.819 391.084 280.576 390.356 280.091C389.638 279.594 389.064 278.899 388.634 278.004C388.203 277.11 387.988 276.056 387.988 274.842C387.988 273.627 388.198 272.579 388.617 271.696C389.048 270.802 389.622 270.112 390.339 269.626C391.057 269.14 391.852 268.897 392.724 268.897C393.607 268.897 394.407 269.14 395.125 269.626C395.842 270.112 396.411 270.802 396.83 271.696C397.261 272.579 397.476 273.633 397.476 274.858C397.476 276.073 397.261 277.127 396.83 278.021C396.411 278.915 395.842 279.605 395.125 280.091C394.418 280.576 393.629 280.819 392.757 280.819ZM392.724 279.031C393.298 279.031 393.794 278.876 394.214 278.567C394.633 278.258 394.959 277.795 395.191 277.176C395.434 276.558 395.555 275.78 395.555 274.842C395.555 273.914 395.434 273.142 395.191 272.524C394.959 271.905 394.628 271.447 394.197 271.149C393.778 270.84 393.287 270.686 392.724 270.686C392.161 270.686 391.664 270.84 391.233 271.149C390.814 271.447 390.488 271.905 390.256 272.524C390.025 273.131 389.909 273.903 389.909 274.842C389.909 275.78 390.025 276.558 390.256 277.176C390.488 277.795 390.814 278.258 391.233 278.567C391.664 278.876 392.161 279.031 392.724 279.031ZM400.908 280.654V269.063H402.779V280.654H400.908ZM398.59 270.768V269.063H402.613V270.768H398.59ZM405.055 282.591L406.181 280.488L406.794 280.323C406.728 280.455 406.65 280.565 406.562 280.654C406.474 280.742 406.369 280.786 406.248 280.786C405.994 280.786 405.756 280.681 405.536 280.472C405.326 280.251 405.221 279.975 405.221 279.644C405.221 279.29 405.337 278.992 405.569 278.75C405.811 278.496 406.11 278.369 406.463 278.369C406.794 278.369 407.081 278.496 407.324 278.75C407.578 278.992 407.705 279.29 407.705 279.644C407.705 279.787 407.672 279.958 407.605 280.157C407.55 280.345 407.445 280.587 407.291 280.886L406.065 283.137L405.055 282.591ZM412.4 279.528L416.672 274.991C417.025 274.615 417.312 274.279 417.533 273.981C417.754 273.683 417.914 273.401 418.013 273.136C418.113 272.871 418.162 272.601 418.162 272.325C418.162 271.806 417.991 271.403 417.649 271.116C417.318 270.818 416.893 270.669 416.374 270.669C415.822 270.669 415.336 270.807 414.917 271.083C414.497 271.359 414.122 271.79 413.791 272.375L412.466 271.282C412.919 270.498 413.476 269.907 414.139 269.51C414.801 269.102 415.568 268.897 416.44 268.897C417.158 268.897 417.787 269.041 418.328 269.328C418.869 269.615 419.288 270.018 419.586 270.537C419.884 271.044 420.033 271.635 420.033 272.308C420.033 272.794 419.973 273.23 419.851 273.616C419.741 273.992 419.548 274.373 419.272 274.759C418.996 275.134 418.615 275.576 418.129 276.084L414.851 279.478L412.4 279.528ZM412.4 280.654V279.528L414.039 278.948H420.265V280.654H412.4ZM426.342 280.819C425.47 280.819 424.67 280.576 423.941 280.091C423.224 279.594 422.65 278.899 422.219 278.004C421.789 277.11 421.574 276.056 421.574 274.842C421.574 273.627 421.783 272.579 422.203 271.696C422.633 270.802 423.207 270.112 423.925 269.626C424.642 269.14 425.437 268.897 426.309 268.897C427.192 268.897 427.993 269.14 428.71 269.626C429.428 270.112 429.996 270.802 430.416 271.696C430.846 272.579 431.061 273.633 431.061 274.858C431.061 276.073 430.846 277.127 430.416 278.021C429.996 278.915 429.428 279.605 428.71 280.091C428.004 280.576 427.214 280.819 426.342 280.819ZM426.309 279.031C426.883 279.031 427.38 278.876 427.799 278.567C428.219 278.258 428.545 277.795 428.776 277.176C429.019 276.558 429.141 275.78 429.141 274.842C429.141 273.914 429.019 273.142 428.776 272.524C428.545 271.905 428.213 271.447 427.783 271.149C427.363 270.84 426.872 270.686 426.309 270.686C425.746 270.686 425.249 270.84 424.819 271.149C424.399 271.447 424.074 271.905 423.842 272.524C423.61 273.131 423.494 273.903 423.494 274.842C423.494 275.78 423.61 276.558 423.842 277.176C424.074 277.795 424.399 278.258 424.819 278.567C425.249 278.876 425.746 279.031 426.309 279.031ZM432.208 279.528L436.481 274.991C436.834 274.615 437.121 274.279 437.342 273.981C437.562 273.683 437.722 273.401 437.822 273.136C437.921 272.871 437.971 272.601 437.971 272.325C437.971 271.806 437.8 271.403 437.457 271.116C437.126 270.818 436.701 270.669 436.182 270.669C435.631 270.669 435.145 270.807 434.725 271.083C434.306 271.359 433.931 271.79 433.599 272.375L432.275 271.282C432.727 270.498 433.285 269.907 433.947 269.51C434.609 269.102 435.377 268.897 436.249 268.897C436.966 268.897 437.595 269.041 438.136 269.328C438.677 269.615 439.097 270.018 439.395 270.537C439.693 271.044 439.842 271.635 439.842 272.308C439.842 272.794 439.781 273.23 439.66 273.616C439.549 273.992 439.356 274.373 439.08 274.759C438.804 275.134 438.423 275.576 437.938 276.084L434.659 279.478L432.208 279.528ZM432.208 280.654V279.528L433.848 278.948H440.074V280.654H432.208ZM441.167 279.528L445.439 274.991C445.792 274.615 446.079 274.279 446.3 273.981C446.521 273.683 446.681 273.401 446.78 273.136C446.879 272.871 446.929 272.601 446.929 272.325C446.929 271.806 446.758 271.403 446.416 271.116C446.085 270.818 445.66 270.669 445.141 270.669C444.589 270.669 444.103 270.807 443.684 271.083C443.264 271.359 442.889 271.79 442.558 272.375L441.233 271.282C441.686 270.498 442.243 269.907 442.905 269.51C443.568 269.102 444.335 268.897 445.207 268.897C445.925 268.897 446.554 269.041 447.095 269.328C447.636 269.615 448.055 270.018 448.353 270.537C448.651 271.044 448.8 271.635 448.8 272.308C448.8 272.794 448.739 273.23 448.618 273.616C448.508 273.992 448.314 274.373 448.038 274.759C447.763 275.134 447.382 275.576 446.896 276.084L443.617 279.478L441.167 279.528ZM441.167 280.654V279.528L442.806 278.948H449.032V280.654H441.167Z" fill="#8B8B8B"/>
<path d="M75.6576 280.654V269.063H77.5618V280.654H75.6576ZM76.9657 275.686V273.948H82.8605V275.686H76.9657ZM76.9657 270.802V269.063H83.142V270.802H76.9657ZM88.1733 280.819C87.3785 280.819 86.6609 280.643 86.0207 280.289C85.3915 279.925 84.8892 279.428 84.5139 278.799C84.1496 278.17 83.9674 277.463 83.9674 276.68C83.9674 275.896 84.1496 275.195 84.5139 274.577C84.8781 273.948 85.3694 273.451 85.9876 273.087C86.6168 272.722 87.3122 272.54 88.0739 272.54C88.8135 272.54 89.4648 272.711 90.0278 273.053C90.6018 273.396 91.0489 273.865 91.369 274.461C91.7002 275.057 91.8658 275.736 91.8658 276.498C91.8658 276.63 91.8547 276.768 91.8326 276.912C91.8216 277.044 91.7995 277.193 91.7664 277.359H85.2424V275.868H90.8226L90.1437 276.464C90.1216 275.979 90.0278 275.57 89.8622 275.239C89.6966 274.908 89.4593 274.654 89.1502 274.477C88.8521 274.301 88.4823 274.213 88.0408 274.213C87.5772 274.213 87.1742 274.312 86.832 274.511C86.4898 274.709 86.2249 274.991 86.0372 275.355C85.8496 275.708 85.7557 276.133 85.7557 276.63C85.7557 277.127 85.8551 277.563 86.0538 277.938C86.2525 278.313 86.534 278.606 86.8983 278.816C87.2625 279.014 87.682 279.114 88.1567 279.114C88.5651 279.114 88.9405 279.042 89.2827 278.899C89.6359 278.755 89.9339 278.545 90.1768 278.269L91.3359 279.445C90.9495 279.898 90.4804 280.24 89.9284 280.472C89.3765 280.703 88.7914 280.819 88.1733 280.819ZM97.5813 280.819C96.9742 280.819 96.4333 280.692 95.9586 280.438C95.484 280.174 95.1086 279.815 94.8327 279.362C94.5677 278.91 94.4353 278.396 94.4353 277.822V275.537C94.4353 274.963 94.5733 274.45 94.8492 273.997C95.1252 273.545 95.5005 273.191 95.9752 272.938C96.4499 272.673 96.9852 272.54 97.5813 272.54C98.2989 272.54 98.9446 272.728 99.5187 273.103C100.104 273.467 100.562 273.964 100.893 274.593C101.235 275.212 101.406 275.913 101.406 276.696C101.406 277.469 101.235 278.17 100.893 278.799C100.562 279.417 100.104 279.909 99.5187 280.273C98.9446 280.637 98.2989 280.819 97.5813 280.819ZM97.2833 279.097C97.7248 279.097 98.1112 278.998 98.4424 278.799C98.7846 278.589 99.0495 278.302 99.2372 277.938C99.4359 277.574 99.5352 277.154 99.5352 276.68C99.5352 276.205 99.4359 275.786 99.2372 275.421C99.0495 275.057 98.7846 274.776 98.4424 274.577C98.1112 274.367 97.7248 274.262 97.2833 274.262C96.8417 274.262 96.4499 274.367 96.1077 274.577C95.7655 274.776 95.5005 275.057 95.3129 275.421C95.1252 275.786 95.0314 276.205 95.0314 276.68C95.0314 277.154 95.1252 277.574 95.3129 277.938C95.5005 278.302 95.7655 278.589 96.1077 278.799C96.4499 278.998 96.8417 279.097 97.2833 279.097ZM93.3259 280.654V268.732H95.1473V274.66L94.8327 276.58L95.1473 278.518V280.654H93.3259ZM105.699 279.528L109.971 274.991C110.325 274.615 110.612 274.279 110.833 273.981C111.053 273.683 111.213 273.401 111.313 273.136C111.412 272.871 111.462 272.601 111.462 272.325C111.462 271.806 111.291 271.403 110.948 271.116C110.617 270.818 110.192 270.669 109.673 270.669C109.121 270.669 108.636 270.807 108.216 271.083C107.797 271.359 107.422 271.79 107.09 272.375L105.766 271.282C106.218 270.498 106.776 269.907 107.438 269.51C108.1 269.102 108.868 268.897 109.74 268.897C110.457 268.897 111.086 269.041 111.627 269.328C112.168 269.615 112.588 270.018 112.886 270.537C113.184 271.044 113.333 271.635 113.333 272.308C113.333 272.794 113.272 273.23 113.151 273.616C113.04 273.992 112.847 274.373 112.571 274.759C112.295 275.134 111.914 275.576 111.429 276.084L108.15 279.478L105.699 279.528ZM105.699 280.654V279.528L107.339 278.948H113.565V280.654H105.699ZM116.943 280.654V269.063H118.814V280.654H116.943ZM114.625 270.768V269.063H118.648V270.768H114.625ZM121.09 282.591L122.216 280.488L122.829 280.323C122.763 280.455 122.685 280.565 122.597 280.654C122.509 280.742 122.404 280.786 122.282 280.786C122.028 280.786 121.791 280.681 121.57 280.472C121.361 280.251 121.256 279.975 121.256 279.644C121.256 279.29 121.372 278.992 121.603 278.75C121.846 278.496 122.144 278.369 122.498 278.369C122.829 278.369 123.116 278.496 123.359 278.75C123.613 278.992 123.739 279.29 123.739 279.644C123.739 279.787 123.706 279.958 123.64 280.157C123.585 280.345 123.48 280.587 123.325 280.886L122.1 283.137L121.09 282.591ZM128.435 279.528L132.707 274.991C133.06 274.615 133.347 274.279 133.568 273.981C133.789 273.683 133.949 273.401 134.048 273.136C134.147 272.871 134.197 272.601 134.197 272.325C134.197 271.806 134.026 271.403 133.684 271.116C133.353 270.818 132.928 270.669 132.409 270.669C131.857 270.669 131.371 270.807 130.952 271.083C130.532 271.359 130.157 271.79 129.826 272.375L128.501 271.282C128.954 270.498 129.511 269.907 130.173 269.51C130.836 269.102 131.603 268.897 132.475 268.897C133.193 268.897 133.822 269.041 134.363 269.328C134.904 269.615 135.323 270.018 135.621 270.537C135.919 271.044 136.068 271.635 136.068 272.308C136.068 272.794 136.007 273.23 135.886 273.616C135.776 273.992 135.582 274.373 135.306 274.759C135.03 275.134 134.65 275.576 134.164 276.084L130.885 279.478L128.435 279.528ZM128.435 280.654V279.528L130.074 278.948H136.3V280.654H128.435ZM142.377 280.819C141.505 280.819 140.705 280.576 139.976 280.091C139.259 279.594 138.685 278.899 138.254 278.004C137.824 277.11 137.608 276.056 137.608 274.842C137.608 273.627 137.818 272.579 138.238 271.696C138.668 270.802 139.242 270.112 139.96 269.626C140.677 269.14 141.472 268.897 142.344 268.897C143.227 268.897 144.027 269.14 144.745 269.626C145.462 270.112 146.031 270.802 146.45 271.696C146.881 272.579 147.096 273.633 147.096 274.858C147.096 276.073 146.881 277.127 146.45 278.021C146.031 278.915 145.462 279.605 144.745 280.091C144.038 280.576 143.249 280.819 142.377 280.819ZM142.344 279.031C142.918 279.031 143.415 278.876 143.834 278.567C144.254 278.258 144.579 277.795 144.811 277.176C145.054 276.558 145.175 275.78 145.175 274.842C145.175 273.914 145.054 273.142 144.811 272.524C144.579 271.905 144.248 271.447 143.818 271.149C143.398 270.84 142.907 270.686 142.344 270.686C141.781 270.686 141.284 270.84 140.854 271.149C140.434 271.447 140.109 271.905 139.877 272.524C139.645 273.131 139.529 273.903 139.529 274.842C139.529 275.78 139.645 276.558 139.877 277.176C140.109 277.795 140.434 278.258 140.854 278.567C141.284 278.876 141.781 279.031 142.344 279.031ZM148.243 279.528L152.515 274.991C152.869 274.615 153.156 274.279 153.376 273.981C153.597 273.683 153.757 273.401 153.857 273.136C153.956 272.871 154.006 272.601 154.006 272.325C154.006 271.806 153.834 271.403 153.492 271.116C153.161 270.818 152.736 270.669 152.217 270.669C151.665 270.669 151.18 270.807 150.76 271.083C150.341 271.359 149.965 271.79 149.634 272.375L148.31 271.282C148.762 270.498 149.32 269.907 149.982 269.51C150.644 269.102 151.411 268.897 152.284 268.897C153.001 268.897 153.63 269.041 154.171 269.328C154.712 269.615 155.132 270.018 155.43 270.537C155.728 271.044 155.877 271.635 155.877 272.308C155.877 272.794 155.816 273.23 155.695 273.616C155.584 273.992 155.391 274.373 155.115 274.759C154.839 275.134 154.458 275.576 153.972 276.084L150.694 279.478L148.243 279.528ZM148.243 280.654V279.528L149.883 278.948H156.108V280.654H148.243ZM157.202 279.528L161.474 274.991C161.827 274.615 162.114 274.279 162.335 273.981C162.555 273.683 162.716 273.401 162.815 273.136C162.914 272.871 162.964 272.601 162.964 272.325C162.964 271.806 162.793 271.403 162.451 271.116C162.119 270.818 161.694 270.669 161.176 270.669C160.624 270.669 160.138 270.807 159.718 271.083C159.299 271.359 158.924 271.79 158.592 272.375L157.268 271.282C157.72 270.498 158.278 269.907 158.94 269.51C159.603 269.102 160.37 268.897 161.242 268.897C161.959 268.897 162.589 269.041 163.129 269.328C163.67 269.615 164.09 270.018 164.388 270.537C164.686 271.044 164.835 271.635 164.835 272.308C164.835 272.794 164.774 273.23 164.653 273.616C164.542 273.992 164.349 274.373 164.073 274.759C163.797 275.134 163.416 275.576 162.931 276.084L159.652 279.478L157.202 279.528ZM157.202 280.654V279.528L158.841 278.948H165.067V280.654H157.202Z" fill="#8B8B8B"/>
<defs>
<linearGradient id="paint0_linear_103_133" x1="415.762" y1="4.10052" x2="415.762" y2="360.398" gradientUnits="userSpaceOnUse">
<stop stop-color="#03A363"/>
<stop offset="0.564195" stop-color="#03A363" stop-opacity="0"/>
</linearGradient>
<linearGradient id="paint1_linear_103_133" x1="415.762" y1="4.10052" x2="415.762" y2="360.398" gradientUnits="userSpaceOnUse">
<stop stop-color="#03A363"/>
<stop offset="0.564195" stop-color="#03A363" stop-opacity="0"/>
</linearGradient>
</defs>
</svg>
